#!OML:ASF F:\VICON\USERDATA\INSTALL\Justin_Nancy\Justin_Nancy.ASF
:FULLY-SPECIFIED
:DEGREES
190
root -5.6755 17.5451 -2.87395 1.7245 23.5738 -3.91001
lowerback 4.38926 2.05914 2.42861
upperback -0.276065 2.9341 1.99775
thorax -2.72719 1.44344 0.499241
lowerneck -14.3089 -3.766 -8.78529
upperneck 25.1506 -4.16332 4.55453
head 10.7456 -2.15807 2.57068
rclavicle 2.7805e-014 7.55382e-015
rhumerus -30.7876 -14.8898 -73.7183
rradius 36.3976
rwrist 3.9095
rhand -16.2854 14.6283
rfingers 7.12502
rthumb 9.92478 -15.1177
lclavicle 2.7805e-014 7.55382e-015
lhumerus -38.003 19.4204 78.1221
lradius 18.0174
lwrist -20.6399
lhand -13.628 26.527
lfingers 7.12502
lthumb 12.4878 56.1339
rfemur 6.31581 -1.22806 25.4958
rtibia 32.764
rfoot 0.575738 -14.9325
rtoes -11.8957
lfemur -27.9777 -0.0204895 -21.9431
ltibia 22.8165
lfoot -3.73697 4.45818
ltoes 0.692068
191
root -5.58288 17.5587 -2.72895 1.60614 24.0103 -3.72146
lowerback 4.45487 1.97108 2.37369
upperback -0.248985 2.81527 1.98951
thorax -2.73915 1.38495 0.52715
lowerneck -14.2899 -3.75095 -9.04131
upperneck 25.1684 -4.10981 4.67902
head 10.7541 -2.1433 2.66719
rclavicle -3.54085e-014 7.95139e-016
rhumerus -31.1958 -15.328 -73.5806
rradius 36.5742
rwrist 3.88379
rhand -16.2117 14.3291
rfingers 7.12502
rthumb 9.99596 -15.4136
lclavicle -3.54085e-014 7.95139e-016
lhumerus -38.1147 19.9945 77.7578
lradius 17.8203
lwrist -21.2146
lhand -13.6051 25.0557
lfingers 7.12502
lthumb 12.5099 54.6612
rfemur 5.24122 -1.5497 25.1115
rtibia 35.3547
rfoot 2.79959 -15.1935
rtoes -7.04454
lfemur -27.2581 -0.176734 -22.3154
ltibia 22.8216
lfoot -3.36768 4.22655
ltoes -0.776655
192
root -5.48591 17.572 -2.58481 1.52609 24.3335 -3.54018
lowerback 4.57614 1.88861 2.42447
upperback -0.201461 2.70958 1.93798
thorax -2.75405 1.3311 0.44939
lowerneck -14.291 -3.64842 -8.90522
upperneck 24.98 -3.96979 4.58049
head 10.6675 -2.07641 2.6253
rclavicle 3.27249e-014 2.14687e-014
rhumerus -31.5285 -15.5696 -73.6135
rradius 36.7436
rwrist 3.30349
rhand -16.2408 14.2769
rfingers 7.12502
rthumb 9.96784 -15.4671
lclavicle 3.27249e-014 2.14687e-014
lhumerus -38.2064 20.6615 77.3665
lradius 17.7865
lwrist -21.8246
lhand -13.2836 24.6619
lfingers 7.12502
lthumb 12.8198 54.2482
rfemur 4.02439 -1.80083 24.6527
rtibia 38.013
rfoot 4.86683 -15.5724
rtoes -1.97478
lfemur -26.5127 -0.218117 -22.6543
ltibia 22.7916
lfoot -3.08951 3.79564
ltoes -1.20666
193
root -5.39024 17.5865 -2.44379 1.56516 24.5201 -3.18984
lowerback 4.54686 1.89928 2.2226
upperback -0.0965959 2.70801 1.92369
thorax -2.63802 1.33453 0.550513
lowerneck -14.2326 -3.55788 -8.67231
upperneck 24.5671 -3.82373 4.29253
head 10.4817 -2.01854 2.497
rclavicle -6.70898e-015 1.19271e-014
rhumerus -32.3448 -15.7252 -73.5238
rradius 37.466
rwrist 2.47668
rhand -15.8461 14.1228
rfingers 7.12502
rthumb 10.3486 -15.6025
lclavicle -6.70898e-015 1.19271e-014
lhumerus -38.0818 21.0286 77.37
lradius 17.7957
lwrist -22.2031
lhand -12.8561 25.4193
lfingers 7.12502
lthumb 13.2319 54.9793
rfemur 2.73362 -2.03453 24.0022
rtibia 40.6863
rfoot 6.98523 -15.5181
rtoes 1.16978
lfemur -25.7745 -0.175284 -23.1152
ltibia 22.7533
lfoot -2.8383 3.17833
ltoes 0.968445
194
root -5.30212 17.6006 -2.3011 1.51813 24.5808 -2.97996
lowerback 4.59107 1.94238 2.03497
upperback -0.0746294 2.75662 1.93449
thorax -2.64923 1.36132 0.661813
lowerneck -14.4819 -3.62013 -8.85517
upperneck 24.6967 -3.83896 4.27571
head 10.5841 -2.04309 2.51866
rclavicle 3.11595e-014 -2.06736e-014
rhumerus -30.7269 -16.0229 -73.3609
rradius 35.5832
rwrist 2.62628
rhand -15.3005 13.6291
rfingers 7.12502
rthumb 10.8749 -16.0693
lclavicle 3.11595e-014 -2.06736e-014
lhumerus -37.9568 21.1857 77.3928
lradius 17.7648
lwrist -22.3248
lhand -12.4883 25.2023
lfingers 7.12502
lthumb 13.5864 54.739
rfemur 1.39693 -2.087 23.6324
rtibia 43.3754
rfoot 9.8803 -14.8353
rtoes 2.52909
lfemur -25.0014 0.153951 -23.455
ltibia 22.6874
lfoot -2.66594 2.722
ltoes 2.20645
195
root -5.21867 17.6174 -2.15983 1.3854 24.6845 -2.72253
lowerback 4.73101 1.96666 1.74166
upperback 0.013907 2.7739 1.89836
thorax -2.64843 1.37369 0.783734
lowerneck -14.6425 -3.65924 -9.02936
upperneck 24.8201 -3.87498 4.42372
head 10.671 -2.05785 2.5967
rclavicle -9.54166e-015 -9.54166e-015
rhumerus -32.7431 -16.306 -73.3801
rradius 37.3431
rwrist 2.75791
rhand -15.6075 13.8502
rfingers 7.12502
rthumb 10.5788 -15.8635
lclavicle -9.54166e-015 -9.54166e-015
lhumerus -37.6746 20.6374 77.8158
lradius 18.0223
lwrist -21.5629
lhand -12.2385 25.3019
lfingers 7.12502
lthumb 13.8272 54.8224
rfemur 0.0720276 -2.16297 23.2501
rtibia 46.0696
rfoot 13.8601 -12.9906
rtoes 2.53275
lfemur -24.103 0.440192 -23.8235
ltibia 22.5709
lfoot -2.67987 2.58555
ltoes 3.05288
196
root -5.13589 17.6344 -2.01975 1.40894 24.969 -2.22759
lowerback 4.78925 1.94689 1.21403
upperback 0.124617 2.71591 1.85494
thorax -2.5891 1.35159 1.03774
lowerneck -14.3805 -3.4603 -8.95381
upperneck 24.5346 -3.61567 4.36383
head 10.4914 -1.93843 2.59695
rclavicle -3.7943e-014 -1.59028e-014
rhumerus -33.8699 -16.3826 -73.4268
rradius 38.3214
rwrist 2.2622
rhand -15.5802 13.789
rfingers 7.12502
rthumb 10.6051 -15.9234
lclavicle -3.7943e-014 -1.59028e-014
lhumerus -37.569 19.5611 78.5898
lradius 18.7311
lwrist -20.2246
lhand -12.276 26.1702
lfingers 7.12502
lthumb 13.791 55.693
rfemur -1.30754 -2.37988 22.5831
rtibia 48.7427
rfoot 15.5378 -12.2864
rtoes 9.49695
lfemur -23.1866 0.808488 -24.4883
ltibia 22.2947
lfoot -2.83896 2.02935
ltoes 3.62099
197
root -5.05694 17.6434 -1.88159 1.69183 25.212 -1.46579
lowerback 4.92344 1.88503 0.537877
upperback 0.114294 2.59277 1.67357
thorax -2.695 1.29694 1.23293
lowerneck -14.4131 -3.48249 -8.84213
upperneck 24.2044 -3.65183 4.2917
head 10.3758 -1.95029 2.54237
rclavicle -4.23908e-014 -3.29983e-014
rhumerus -33.8536 -16.0709 -73.6679
rradius 38.0906
rwrist 1.71825
rhand -14.8379 12.7228
rfingers 7.12502
rthumb 11.3211 -16.9516
lclavicle -4.23908e-014 -3.29983e-014
lhumerus -37.5823 19.0197 78.843
lradius 19.1843
lwrist -19.4624
lhand -12.5426 25.8287
lfingers 7.12502
lthumb 13.5341 55.3689
rfemur -2.86551 -2.62232 21.6872
rtibia 51.3888
rfoot 16.7149 -11.9455
rtoes 13.2566
lfemur -22.3906 1.20434 -25.418
ltibia 21.932
lfoot -2.85912 1.32787
ltoes 5.2533
198
root -4.97312 17.6613 -1.74375 1.9836 25.4147 -0.628241
lowerback 5.07623 1.80913 -0.163353
upperback 0.0409018 2.44647 1.44694
thorax -2.87282 1.23175 1.39655
lowerneck -13.7712 -3.18059 -8.04518
upperneck 23.6562 -3.33832 3.7594
head 10.0035 -1.79539 2.25991
rclavicle 4.3012e-014 -8.74653e-015
rhumerus -33.965 -15.7771 -73.885
rradius 37.7859
rwrist 1.57198
rhand -14.7481 12.7818
rfingers 7.12502
rthumb 11.4077 -16.8879
lclavicle 4.3012e-014 -8.74653e-015
lhumerus -37.5913 18.6817 78.9344
lradius 19.4478
lwrist -18.9799
lhand -12.3722 25.1787
lfingers 7.12502
lthumb 13.6983 54.7078
rfemur -4.32482 -2.827 20.6797
rtibia 53.8797
rfoot 16.6378 -11.661
rtoes 13.5061
lfemur -21.5459 1.63579 -26.4141
ltibia 21.6186
lfoot -2.91178 0.749764
ltoes 8.16213
199
root -4.89354 17.6823 -1.60528 2.08185 25.7258 -0.0751171
lowerback 5.04588 1.71136 -0.770915
upperback 0.154049 2.2783 1.41128
thorax -2.75697 1.15501 1.71597
lowerneck -14.0102 -3.19392 -8.65767
upperneck 23.7505 -3.26784 4.08293
head 10.0972 -1.77998 2.48596
rclavicle -5.45664e-014 -3.57812e-015
rhumerus -33.9537 -15.497 -74.0686
rradius 37.6381
rwrist 1.4951
rhand -15.2555 13.2988
rfingers 7.12502
rthumb 10.9183 -16.3973
lclavicle -5.45664e-014 -3.57812e-015
lhumerus -37.2211 18.0086 79.5524
lradius 19.7514
lwrist -18.028
lhand -12.3841 25.8753
lfingers 7.12502
lthumb 13.6868 55.4052
rfemur -5.59409 -2.92779 19.9792
rtibia 56.2479
rfoot 15.3546 -11.9268
rtoes 17.5196
lfemur -20.6314 1.98956 -27.0922
ltibia 21.3236
lfoot -2.97353 0.321688
ltoes 9.53173
200
root -4.81539 17.6762 -1.47226 2.10603 26.097 0.348377
lowerback 5.0182 1.61242 -1.1223
upperback 0.375762 2.12388 1.37087
thorax -2.51861 1.07927 1.88745
lowerneck -14.2544 -3.146 -8.59348
upperneck 23.5816 -3.18016 4.02804
head 10.0745 -1.73653 2.46313
rclavicle 6.38596e-014 1.94809e-014
rhumerus -33.5903 -15.4041 -74.2658
rradius 37.2784
rwrist 1.79355
rhand -15.0848 13.1772
rfingers 7.12502
rthumb 11.0829 -16.5102
lclavicle 6.38596e-014 1.94809e-014
lhumerus -36.6701 17.1349 80.2925
lradius 20.1624
lwrist -17.1131
lhand -12.6397 26.1257
lfingers 7.12502
lthumb 13.4405 55.6721
rfemur -6.83223 -3.45949 19.5046
rtibia 58.3362
rfoot 14.9069 -11.1681
rtoes 16.1289
lfemur -19.7975 2.06816 -27.6252
ltibia 21.1325
lfoot -3.16948 0.0720714
ltoes 10.2564
201
root -4.72969 17.6722 -1.34543 2.27682 26.6156 0.926233
lowerback 5.06355 1.45292 -1.47181
upperback 0.473445 1.88714 1.23205
thorax -2.43996 0.962819 1.95839
lowerneck -14.4967 -3.09455 -8.60157
upperneck 23.6201 -3.0919 4.05582
head 10.1287 -1.69181 2.48482
rclavicle -1.85864e-014 1.23246e-014
rhumerus -33.4362 -15.4378 -74.4333
rradius 36.9424
rwrist 2.26883
rhand -14.8054 13.011
rfingers 7.12502
rthumb 11.3524 -16.6617
lclavicle -1.85864e-014 1.23246e-014
lhumerus -36.285 16.2903 80.8295
lradius 20.5966
lwrist -16.3739
lhand -12.6036 25.4691
lfingers 7.12502
lthumb 13.4753 55.0132
rfemur -8.143 -3.98615 18.7627
rtibia 60.3012
rfoot 13.8229 -11.173
rtoes 15.8202
lfemur -19.1285 1.97099 -28.3454
ltibia 21.1265
lfoot -3.40036 -0.175405
ltoes 11.3269
202
root -4.64793 17.6717 -1.22057 2.36046 26.9703 1.27096
lowerback 5.21397 1.28987 -1.70649
upperback 0.441584 1.65325 1.17939
thorax -2.55135 0.849637 2.04955
lowerneck -14.8608 -3.13304 -8.98688
upperneck 23.9881 -3.03531 4.13177
head 10.3379 -1.69288 2.58663
rclavicle 1.69464e-014 -3.57812e-015
rhumerus -33.6094 -15.2964 -74.6428
rradius 36.7095
rwrist 2.51398
rhand -14.9205 12.985
rfingers 7.12502
rthumb 11.2414 -16.6938
lclavicle 1.69464e-014 -3.57812e-015
lhumerus -36.1165 16.6438 80.6697
lradius 20.6414
lwrist -16.7007
lhand -12.5959 24.5411
lfingers 7.12502
lthumb 13.4828 54.0847
rfemur -9.48711 -4.3298 18.3285
rtibia 61.9877
rfoot 12.9 -11.2082
rtoes 14.3787
lfemur -18.5408 1.77662 -28.7595
ltibia 21.2411
lfoot -3.59584 -0.0913408
ltoes 11.2684
203
root -4.56714 17.667 -1.09601 2.34412 27.353 1.44705
lowerback 5.41316 1.20999 -1.71689
upperback 0.371204 1.54124 1.10201
thorax -2.72808 0.795692 1.97941
lowerneck -14.7813 -3.18306 -8.92309
upperneck 24.0317 -3.08357 3.95704
head 10.3391 -1.73045 2.50767
rclavicle -2.68856e-014 4.77083e-015
rhumerus -34.0137 -15.6 -74.7039
rradius 36.5193
rwrist 3.12762
rhand -14.9218 12.854
rfingers 7.12502
rthumb 11.2402 -16.8248
lclavicle -2.68856e-014 4.77083e-015
lhumerus -36.0788 15.9662 80.826
lradius 20.9759
lwrist -16.3397
lhand -12.2725 23.8704
lfingers 7.12502
lthumb 13.7944 53.393
rfemur -10.7579 -4.61205 18.115
rtibia 63.4952
rfoot 11.8981 -11.1529
rtoes 14.2668
lfemur -17.9169 1.45549 -28.9841
ltibia 21.3584
lfoot -3.91465 0.0371874
ltoes 10.5203
204
root -4.487 17.6633 -0.971822 2.35228 27.8849 1.83019
lowerback 5.61981 1.10301 -1.887
upperback 0.370928 1.38116 0.971972
thorax -2.83725 0.71827 1.94995
lowerneck -14.4425 -3.15005 -8.62979
upperneck 23.8079 -3.1122 3.84278
head 10.1864 -1.73006 2.4135
rclavicle 4.4975e-014 -6.75868e-015
rhumerus -34.2566 -15.9931 -74.7339
rradius 36.2601
rwrist 3.85483
rhand -14.6216 12.9885
rfingers 7.12502
rthumb 11.5297 -16.6744
lclavicle 4.4975e-014 -6.75868e-015
lhumerus -36.103 13.8565 81.7288
lradius 21.9557
lwrist -14.5862
lhand -12.3686 23.7448
lfingers 7.12502
lthumb 13.7018 53.2737
rfemur -11.8327 -5.03324 17.6468
rtibia 64.773
rfoot 11.0011 -10.5604
rtoes 14.2614
lfemur -17.2205 1.36761 -29.4365
ltibia 21.5127
lfoot -4.3804 -0.294071
ltoes 11.4879
